<svg data-v-fde0c5aa="" xmlns="http://www.w3.org/2000/svg" viewBox="0 0 300 300" class="iconLeft"><!----><defs data-v-fde0c5aa=""><!----></defs><rect data-v-fde0c5aa="" fill="#9B008B" x="0" y="0" width="300px" height="300px" class="logo-background-square"></rect><defs data-v-fde0c5aa=""><!----></defs><g data-v-fde0c5aa="" id="931e1cda-1e2e-4f18-91a6-fb46d8bd0bf2" fill="#8FF9BD" transform="matrix(2.2890445856585258,0,0,2.2890445856585258,128.86063499042646,126.44573184664463)"><path d="M3.63 13.30L5.73 13.30L5.73 8.75L9.24 3.78L6.73 3.78L4.68 7.07L2.62 3.78L0.11 3.78L3.63 8.75ZM11.00 11.84C9.87 11.84 9.56 11.02 9.56 10.23C9.56 9.46 9.90 8.64 11.00 8.64C12.10 8.64 12.43 9.46 12.43 10.23C12.43 11.02 12.12 11.84 11.00 11.84ZM11.00 7.00C9.07 7.00 7.48 8.29 7.48 10.22C7.48 12.19 9.03 13.43 11.00 13.43C12.96 13.43 14.52 12.19 14.52 10.22C14.52 8.29 12.92 7.00 11.00 7.00ZM15.71 10.64C15.71 12.31 16.38 13.44 18.03 13.44C18.84 13.44 19.50 13.08 19.92 12.54L19.92 13.30L22.02 13.30L22.02 7.13L19.92 7.13L19.92 10.22C19.92 11.05 19.40 11.76 18.75 11.76C18.09 11.76 17.81 11.35 17.81 10.64L17.81 7.13L15.71 7.13ZM27.75 5.68L30.46 5.68L30.46 3.78L22.93 3.78L22.93 5.68L25.65 5.68L25.65 13.30L27.75 13.30ZM32.98 11.84C31.85 11.84 31.54 11.02 31.54 10.23C31.54 9.46 31.88 8.64 32.98 8.64C34.08 8.64 34.41 9.46 34.41 10.23C34.41 11.02 34.10 11.84 32.98 11.84ZM32.98 7.00C31.05 7.00 29.46 8.29 29.46 10.22C29.46 12.19 31.01 13.43 32.98 13.43C34.94 13.43 36.50 12.19 36.50 10.22C36.50 8.29 34.90 7.00 32.98 7.00ZM39.93 10.22C39.93 9.41 40.56 8.68 41.40 8.68C42.24 8.68 42.87 9.41 42.87 10.22C42.87 11.03 42.24 11.76 41.40 11.76C40.56 11.76 39.93 11.03 39.93 10.22ZM39.93 16.80L39.93 12.56C40.35 13.19 41.24 13.44 42.04 13.44C43.79 13.44 45.11 11.93 45.11 10.22C45.11 8.51 43.79 6.99 42.04 6.99C41.24 6.99 40.47 7.21 39.93 7.88L39.93 7.13L37.83 7.13L37.83 16.80ZM46.33 5.01C46.33 5.68 46.87 6.24 47.56 6.24C48.23 6.24 48.79 5.68 48.79 5.01C48.79 4.33 48.23 3.78 47.56 3.78C46.87 3.78 46.33 4.33 46.33 5.01ZM48.61 13.30L48.61 7.13L46.51 7.13L46.51 13.30ZM55.19 10.22C55.19 11.03 54.56 11.76 53.72 11.76C52.88 11.76 52.25 11.03 52.25 10.22C52.25 9.41 52.88 8.68 53.72 8.68C54.56 8.68 55.19 9.41 55.19 10.22ZM57.29 7.14L55.19 7.14L55.19 7.88C54.64 7.21 53.86 6.99 53.07 6.99C51.32 6.99 50.01 8.51 50.01 10.22C50.01 11.93 51.32 13.44 53.07 13.44C53.86 13.44 54.77 13.19 55.19 12.56L55.19 13.30L57.29 13.30Z"></path></g><defs data-v-fde0c5aa=""><!----></defs><g data-v-fde0c5aa="" id="0bd61379-7469-4b45-b753-1fa435bf5177" stroke="none" fill="#8FF9BD" transform="matrix(1.5792927653325888,0,0,1.5792927653325888,38.67813184170374,109.91360186590747)"><path d="M35.238 17.482c.109.334.176.676.176 1.027 0 3.192-4.691 5.78-10.479 5.78-5.787 0-10.479-2.588-10.479-5.78 0-.352.066-.693.175-1.028C6.533 18.554.935 20.851.935 23.512c0 3.687 10.862 7.405 24.117 7.405 13.254 0 23.883-3.719 23.883-7.405.001-2.66-5.599-4.957-13.697-6.03z"></path><path d="M25.052 31.016C12.379 31.016.837 27.44.837 23.513c0-2.653 5.281-5.001 13.781-6.128l.153-.021-.048.147c-.114.352-.17.679-.17.998 0 3.134 4.657 5.683 10.381 5.683s10.381-2.549 10.381-5.683c0-.32-.057-.646-.17-.997l-.049-.147.154.021c8.5 1.126 13.781 3.474 13.781 6.127 0 1.849-2.566 3.736-7.039 5.178-4.648 1.498-10.666 2.325-16.94 2.325zM14.494 17.599c-8.183 1.104-13.461 3.42-13.461 5.914 0 3.449 10.272 7.308 24.02 7.308 13.614 0 23.786-3.858 23.786-7.308 0-2.494-5.279-4.811-13.461-5.913.09.315.135.614.135.91 0 3.241-4.745 5.878-10.577 5.878S14.36 21.751 14.36 18.51a3.227 3.227 0 0 1 .134-.911z"></path><path d="M24.935 25.79c-6.717 0-11.979-3.198-11.979-7.28 0-4.083 5.262-7.281 11.979-7.281s11.979 3.198 11.979 7.281c0 4.082-5.262 7.28-11.979 7.28zm0-11.561c-5.291 0-8.979 2.256-8.979 4.281 0 2.024 3.688 4.28 8.979 4.28 5.292 0 8.979-2.256 8.979-4.28 0-2.026-3.687-4.281-8.979-4.281z"></path><circle cx="8.957" cy="33.84" r="2.965"></circle><path d="M8.958 36.902c-1.689 0-3.063-1.374-3.063-3.063s1.375-3.063 3.063-3.063c1.688 0 3.063 1.374 3.063 3.063s-1.375 3.063-3.063 3.063zm0-5.929c-1.582 0-2.868 1.286-2.868 2.867s1.287 2.867 2.868 2.867 2.867-1.286 2.867-2.867-1.286-2.867-2.867-2.867z"></path><g><path d="M11.394 28.038l-1.951 4.739M10.47 27.658l1.849.762-1.952 4.739-1.849-.762z"></path></g><g><circle cx="25.204" cy="36.474" r="2.966"></circle><path d="M25.204 39.536c-1.688 0-3.063-1.374-3.063-3.063s1.374-3.063 3.063-3.063 3.064 1.374 3.064 3.063-1.375 3.063-3.064 3.063zm0-5.93c-1.581 0-2.867 1.286-2.867 2.867s1.286 2.867 2.867 2.867c1.582 0 2.869-1.286 2.869-2.867s-1.288-2.867-2.869-2.867z"></path><g><path d="M25.248 29.246l-.088 7.228M24.246 29.233l2 .024-.084 7.227-2-.023z"></path></g></g><g><circle cx="41.191" cy="33.561" r="2.965"></circle><path d="M41.191 36.623c-1.689 0-3.063-1.374-3.063-3.063s1.373-3.063 3.063-3.063c1.688 0 3.063 1.374 3.063 3.063s-1.375 3.063-3.063 3.063zm0-5.93c-1.582 0-2.867 1.286-2.867 2.867s1.285 2.867 2.867 2.867c1.58 0 2.867-1.286 2.867-2.867s-1.287-2.867-2.867-2.867z"></path><g><path d="M38.619 27.295l2.322 5.574M39.542 26.911l2.323 5.575-1.846.77-2.323-5.575z"></path></g></g></g><!----></svg>